<?xml version="1.0" encoding="UTF-8" standalone="no"?>
<svg width="18px" height="24px" viewBox="0 0 18 24" version="1.1" xmlns="http://www.w3.org/2000/svg" xmlns:xlink="http://www.w3.org/1999/xlink">
    <!-- Generator: Sketch 3.8.3 (29802) - http://www.bohemiancoding.com/sketch -->
    <title>Shape</title>
    <desc>Created with Sketch.</desc>
    <defs></defs>
    <g id="Page-1" stroke="none" stroke-width="1" fill="none" fill-rule="evenodd">
        <path d="M14.715,3.533 C11.775,3.533 11.709,1 8.296,1 C7.049,1 5.866,1.393 5,1.84 L5,-2.22044605e-16 L3,-2.22044605e-16 L3,14.75 C3,16.229 3.354,17.686 4.031,19 C4.669,17.684 5,16.24 5,14.778 L5,12 C5.854,11.312 7.229,10.711 8.308,10.711 C11.531,10.711 11.984,13.121 14.857,13.121 C16.713,13.121 18.001,11.932 18.001,11.932 L18.001,2.282 C18,2.282 16.582,3.533 14.715,3.533 L14.715,3.533 Z M16,10.853 C14.721,11.442 13.924,11.012 12.924,10.322 C11.938,9.643 10.588,8.712 8.308,8.712 C7.19,8.711 6.01,9.106 5,9.624 L5,4.238 C6.354,3.071 8.551,2.353 10.54,3.912 C12.065,5.106 13.659,5.88 16,5.401 L16,10.853 L16,10.853 Z M8,22.5 C8,23.329 6.21,24 4,24 C1.79,24 0,23.329 0,22.5 C0,21.671 1.79,21 4,21 C6.21,21 8,21.671 8,22.5 L8,22.5 Z" id="Shape" fill="#000000"></path>
    </g>
</svg>