<?xml version="1.0" encoding="UTF-8" standalone="no"?>
<svg width="78px" height="90px" viewBox="0 0 78 90" version="1.1" xmlns="http://www.w3.org/2000/svg" xmlns:xlink="http://www.w3.org/1999/xlink">
    <!-- Generator: Sketch 3.8.3 (29802) - http://www.bohemiancoding.com/sketch -->
    <title>Group</title>
    <desc>Created with Sketch.</desc>
    <defs></defs>
    <g id="Page-1" stroke="none" stroke-width="1" fill="none" fill-rule="evenodd">
        <g id="noun_38542_cc" transform="translate(-11.000000, 0.000000)" fill="#000000">
            <g id="Group" transform="translate(11.000000, 0.000000)">
                <path d="M34.825,70.747 L17.995,77.84 L21.108,85.226 C22.81,89.264 26.895,91.433 32.819,88.937 C38.745,86.44 39.641,82.171 37.939,78.133 L34.825,70.747 L34.825,70.747 Z" id="Shape"></path>
                <path d="M30.293,53.332 C29.949,48.963 27.885,40.045 23.614,34.907 C23.614,34.907 13.7,22.678 6.034,25.909 C-1.633,29.14 0.248,43.921 0.248,43.921 C0.699,48.281 3.225,54.725 5.85,58.232 L9.393,62.969 C11.436,65.699 14.098,70.191 15.9,73.768 L33.156,66.495 C31.659,62.171 30.584,56.989 30.293,53.332 L30.293,53.332 Z" id="Shape"></path>
                <path d="M38.686,51.73 C36.844,55.706 37.987,60.188 43.82,62.89 C49.655,65.594 53.415,63.385 55.258,59.409 L58.628,52.137 L42.057,44.458 L38.686,51.73 L38.686,51.73 Z" id="Shape"></path>
                <path d="M72.429,0.67 C64.88,-2.828 55.211,8.508 55.211,8.508 C52.289,11.775 49.22,17.979 48.392,22.281 L47.271,28.089 C46.626,31.437 45.093,36.429 43.66,40.168 L60.651,48.041 C62.843,44.024 65.954,39.742 68.464,37.067 C71.465,33.873 76.673,26.346 77.601,19.73 C77.6,19.73 79.978,4.168 72.429,0.67 L72.429,0.67 Z" id="Shape"></path>
            </g>
        </g>
    </g>
</svg>