<?xml version="1.0" encoding="UTF-8" standalone="no"?>
<svg width="90px" height="90px" viewBox="0 0 90 90" version="1.1" xmlns="http://www.w3.org/2000/svg" xmlns:xlink="http://www.w3.org/1999/xlink">
    <!-- Generator: Sketch 3.8.3 (29802) - http://www.bohemiancoding.com/sketch -->
    <title>Shape</title>
    <desc>Created with Sketch.</desc>
    <defs></defs>
    <g id="Page-1" stroke="none" stroke-width="1" fill="none" fill-rule="evenodd">
        <g id="noun_185148_cc" transform="translate(-5.000000, 0.000000)" fill="#000000">
            <path d="M91.5,53.646 C84.624,42.376 69.915,38.814 58.646,45.689 C48.363,51.963 44.527,64.753 49.153,75.507 L42.463,79.588 C42.337,79.544 42.212,79.5 42.076,79.473 L31.137,77.409 C31.095,76.86 30.892,76.318 30.518,75.857 L23.422,67.129 C23.007,66.619 22.449,66.306 21.853,66.17 C21.857,66.058 21.871,65.947 21.86,65.835 L21.039,55.392 C21.197,55.193 21.339,54.98 21.44,54.733 L24.484,47.404 C35.363,49.463 46.566,43.713 50.983,33.081 C56.044,20.89 50.265,6.902 38.074,1.837 C25.881,-3.226 11.894,2.554 6.831,14.746 C2.226,25.833 6.609,38.381 16.604,44.376 L13.647,51.496 C13.443,51.995 13.399,52.511 13.474,53.002 C12.861,53.567 12.497,54.388 12.567,55.284 L13.447,66.498 C13.57,68.049 14.924,69.203 16.47,69.081 L16.771,69.057 C16.058,70.062 16.058,71.449 16.874,72.451 L23.967,81.181 C24.788,82.191 26.161,82.472 27.294,81.963 L27.212,82.398 C26.924,83.921 27.927,85.394 29.454,85.682 L40.508,87.766 C41.4,87.934 42.264,87.653 42.893,87.094 C43.789,87.781 45.046,87.893 46.068,87.27 L53.776,82.565 C61.366,90.56 73.75,92.472 83.54,86.501 C94.811,79.626 98.374,64.916 91.5,53.646 L91.5,53.646 Z M13.453,17.499 C16.998,8.966 26.788,4.919 35.323,8.463 C43.856,12.007 47.903,21.797 44.358,30.334 C40.814,38.867 31.023,42.914 22.489,39.369 C13.955,35.825 9.91,26.033 13.453,17.499 L13.453,17.499 Z M19.74,45.991 C20.398,46.263 21.065,46.49 21.733,46.702 L19.399,52.322 C18.963,52.112 18.474,52 17.957,52.04 L16.422,52.16 L19.109,45.69 C19.321,45.788 19.52,45.901 19.74,45.991 L19.74,45.991 Z M16.253,66.278 L15.388,55.267 L17.765,56.252 C17.941,56.327 18.119,56.379 18.299,56.415 L19.057,66.055 L16.253,66.278 L16.253,66.278 Z M26.154,79.407 L19.059,70.678 L21.239,68.904 L28.334,77.631 L26.154,79.407 L26.154,79.407 Z M41.033,85.002 L29.98,82.917 L30.501,80.153 L40.379,82.016 C40.273,82.656 40.378,83.335 40.742,83.931 L41.119,84.549 L41.033,85.002 L41.033,85.002 Z M44.606,84.869 L44.081,84.011 L44.316,82.76 C44.381,82.417 44.371,82.079 44.315,81.752 L50.413,78.034 C50.509,78.201 50.587,78.374 50.687,78.542 C51.08,79.185 51.506,79.798 51.945,80.389 L44.606,84.869 L44.606,84.869 Z M79.808,80.379 C71.919,85.191 61.622,82.697 56.81,74.809 C51.997,66.92 54.491,56.622 62.38,51.811 C70.269,46.998 80.566,49.494 85.376,57.383 C90.189,65.271 87.697,75.565 79.808,80.379 L79.808,80.379 Z" id="Shape"></path>
        </g>
    </g>
</svg>