<?xml version="1.0" encoding="UTF-8" standalone="no"?>
<svg width="24px" height="24px" viewBox="0 0 24 24" version="1.1" xmlns="http://www.w3.org/2000/svg" xmlns:xlink="http://www.w3.org/1999/xlink">
    <!-- Generator: Sketch 3.8.3 (29802) - http://www.bohemiancoding.com/sketch -->
    <title>Shape</title>
    <desc>Created with Sketch.</desc>
    <defs></defs>
    <g id="Page-1" stroke="none" stroke-width="1" fill="none" fill-rule="evenodd">
        <path d="M16.143,2 L22,7.858 L22,16.142 L16.143,22 L7.857,22 L2,16.142 L2,7.858 L7.857,2 L16.143,2 L16.143,2 Z M16.971,0 L7.029,0 L0,7.029 L0,16.97 L7.029,24 L16.97,24 L24,16.971 L24,7.029 L16.971,0 L16.971,0 Z M10.5,6 L13.5,6 L12.5,14 L11.5,14 L10.5,6 L10.5,6 Z M12,18.25 C11.31,18.25 10.75,17.69 10.75,17 C10.75,16.31 11.31,15.75 12,15.75 C12.69,15.75 13.25,16.31 13.25,17 C13.25,17.69 12.69,18.25 12,18.25 L12,18.25 Z" id="Shape" fill="#000000"></path>
    </g>
</svg>