<?xml version="1.0" encoding="UTF-8" standalone="no"?>
<svg width="48px" height="58px" viewBox="0 0 48 58" version="1.1" xmlns="http://www.w3.org/2000/svg" xmlns:xlink="http://www.w3.org/1999/xlink">
    <!-- Generator: Sketch 3.8.3 (29802) - http://www.bohemiancoding.com/sketch -->
    <title>Shape</title>
    <desc>Created with Sketch.</desc>
    <defs></defs>
    <g id="Page-1" stroke="none" stroke-width="1" fill="none" fill-rule="evenodd">
        <g id="noun_305797_cc" transform="translate(-5.000000, 0.000000)" fill="#000000">
            <path d="M17.87825,0.09325 C17.110483,0.09325 16.339035,0.413715 15.75325,0.9995 L5.87825,10.8745 C4.70668,12.04607 4.7085307,13.951079 5.87825,15.1245 L15.75325,25.03075 C16.922968,26.204169 18.831677,26.202323 20.00325,25.03075 C21.174821,23.859179 21.174789,21.952351 20.00325,20.78075 L15.222,15.9995 L46.99975,15.9995 L47,55 C47.000011,56.65685 48.34315,58 50,58 C51.65685,58 53.000011,56.65685 53,55 L52.99975,15.9995 C52.999729,12.685792 50.313458,9.9995 46.99975,9.9995 L15.222,9.9995 L20.00325,5.21825 C21.17482,4.04668 21.174822,2.171072 20.00325,0.9995 C19.417464,0.413714 18.646017,0.09325 17.87825,0.09325 L17.87825,0.09325 Z" id="Shape"></path>
        </g>
    </g>
</svg>