<?xml version="1.0" encoding="UTF-8" standalone="no"?>
<svg width="24px" height="24px" viewBox="0 0 24 24" version="1.1" xmlns="http://www.w3.org/2000/svg" xmlns:xlink="http://www.w3.org/1999/xlink">
    <!-- Generator: Sketch 3.8.3 (29802) - http://www.bohemiancoding.com/sketch -->
    <title>Shape</title>
    <desc>Created with Sketch.</desc>
    <defs></defs>
    <g id="Page-1" stroke="none" stroke-width="1" fill="none" fill-rule="evenodd">
        <path d="M13.75,22 C13.75,22.966 12.967,23.75 12,23.75 C11.033,23.75 10.25,22.966 10.25,22 C10.25,21.034 11.033,20.25 12,20.25 C12.967,20.25 13.75,21.034 13.75,22 L13.75,22 Z M12,0 C10.896,0 10,0.896 10,2 C10,3.104 10.896,4 12,4 C13.104,4 14,3.104 14,2 C14,0.896 13.104,0 12,0 L12,0 Z M22,10.75 C22.689,10.75 23.249,11.311 23.249,12 C23.249,12.69 22.689,13.25 22,13.25 C21.31,13.25 20.751,12.691 20.751,12 C20.751,11.311 21.31,10.75 22,10.75 L22,10.75 Z M0,12 C0,13.105 0.896,14 2,14 C3.104,14 4,13.105 4,12 C4,10.896 3.104,10 2,10 C0.896,10 0,10.896 0,12 L0,12 Z M19,4 C19.551,4 20,4.449 20,5 C20,5.553 19.551,6.002 19,6 C18.449,6 18,5.553 18,5.002 C18,4.449 18.449,4 19,4 L19,4 Z M19,17.5 C19.828,17.5 20.5,18.172 20.5,19 C20.5,19.828 19.828,20.501 18.998,20.5 C18.172,20.5 17.5,19.829 17.5,19.001 C17.5,18.172 18.172,17.5 19,17.5 L19,17.5 Z M5,3 C6.104,3 7,3.896 7,5 C7,6.104 6.104,7 4.999,7 C3.896,7 3,6.105 3,5 C3,3.895 3.896,3 5,3 L5,3 Z M5,17 C6.104,17 7,17.896 7,19 C7,20.104 6.104,21 4.999,21 C3.896,21 3,20.105 3,19 C3,17.895 3.896,17 5,17 L5,17 Z" id="Shape" fill="#000000"></path>
    </g>
</svg>