<?xml version="1.0" encoding="UTF-8" standalone="no"?>
<svg width="24px" height="24px" viewBox="0 0 24 24" version="1.1" xmlns="http://www.w3.org/2000/svg" xmlns:xlink="http://www.w3.org/1999/xlink">
    <!-- Generator: Sketch 3.8.3 (29802) - http://www.bohemiancoding.com/sketch -->
    <title>Shape</title>
    <desc>Created with Sketch.</desc>
    <defs></defs>
    <g id="Page-1" stroke="none" stroke-width="1" fill="none" fill-rule="evenodd">
        <path d="M12,0 C5.373,0 0,5.373 0,12 C0,18.627 5.373,24 12,24 C18.627,24 24,18.627 24,12 C24,5.373 18.627,0 12,0 L12,0 Z M12,22 C6.486,22 2,17.514 2,12 C2,9.603 2.85,7.4 4.262,5.676 L15.459,16.885 L15.463,16.877 L18.324,19.738 C16.6,21.15 14.397,22 12,22 L12,22 Z M19.738,18.324 L16.426,15.011 C17.036,13.796 17.819,12.243 17.904,12.041 C17.97,11.897 18,11.763 18,11.64 C18,10.83 16.724,10.513 16.303,11.316 C16.296,11.326 15.546,12.704 15.431,12.92 C15.307,13.148 14.937,13.1 14.937,12.802 L14.937,7.476 C14.937,6.637 13.589,6.662 13.589,7.476 L13.589,12.172 L13.136,11.721 L13.134,6.656 C13.134,6.216 12.779,6 12.42,6 C12.057,6 11.691,6.222 11.691,6.656 L11.691,10.276 L11.254,9.839 L11.254,7.41 C11.254,6.549 9.778,6.525 9.778,7.41 L9.778,8.364 L5.676,4.262 C7.4,2.85 9.603,2 12,2 C17.514,2 22,6.486 22,12 C22,14.397 21.15,16.6 19.738,18.324 L19.738,18.324 Z M8.002,10.841 L14.77,17.61 C14.42,17.846 13.97,18 13.341,18 L10.406,18 C8.831,18 8,17.15 8,15.663 L8.002,10.841 L8.002,10.841 Z" id="Shape" fill="#000000"></path>
    </g>
</svg>