<?xml version="1.0" encoding="UTF-8" standalone="no"?>
<svg width="24px" height="22px" viewBox="0 0 24 22" version="1.1" xmlns="http://www.w3.org/2000/svg" xmlns:xlink="http://www.w3.org/1999/xlink">
    <!-- Generator: Sketch 3.8.3 (29802) - http://www.bohemiancoding.com/sketch -->
    <title>Shape</title>
    <desc>Created with Sketch.</desc>
    <defs></defs>
    <g id="Page-1" stroke="none" stroke-width="1" fill="none" fill-rule="evenodd">
        <path d="M6,15 L0,15 L0,12 L6,12 L6,15 L6,15 Z M4,10 L4,0 L2,0 L2,10 L4,10 L4,10 Z M2,17 L2,22 L4,22 L4,17 L2,17 L2,17 Z M15,10 L9,10 L9,7 L15,7 L15,10 L15,10 Z M13,5 L13,0 L11,0 L11,5 L13,5 L13,5 Z M11,12 L11,22 L13,22 L13,12 L11,12 L11,12 Z M24,15 L18,15 L18,12 L24,12 L24,15 L24,15 Z M22,10 L22,0 L20,0 L20,10 L22,10 L22,10 Z M20,17 L20,22 L22,22 L22,17 L20,17 L20,17 Z" id="Shape" fill="#000000"></path>
    </g>
</svg>