<?xml version="1.0" encoding="UTF-8" standalone="no"?>
<svg width="24px" height="22px" viewBox="0 0 24 22" version="1.1" xmlns="http://www.w3.org/2000/svg" xmlns:xlink="http://www.w3.org/1999/xlink">
    <!-- Generator: Sketch 3.8.3 (29802) - http://www.bohemiancoding.com/sketch -->
    <title>Shape</title>
    <desc>Created with Sketch.</desc>
    <defs></defs>
    <g id="Page-1" stroke="none" stroke-width="1" fill="none" fill-rule="evenodd">
        <path d="M12,4.177 L20.631,20 L3.369,20 L12,4.177 L12,4.177 Z M12,0 L0,22 L24,22 L12,0 L12,0 Z M11,9 L13,9 L13,15 L11,15 L11,9 L11,9 Z M12,18.75 C11.311,18.75 10.75,18.19 10.75,17.5 C10.75,16.81 11.311,16.25 12,16.25 C12.689,16.25 13.25,16.81 13.25,17.5 C13.25,18.19 12.689,18.75 12,18.75 L12,18.75 Z" id="Shape" fill="#000000"></path>
    </g>
</svg>