<?xml version="1.0" encoding="UTF-8" standalone="no"?>
<svg width="48px" height="58px" viewBox="0 0 48 58" version="1.1" xmlns="http://www.w3.org/2000/svg" xmlns:xlink="http://www.w3.org/1999/xlink">
    <!-- Generator: Sketch 3.8.3 (29802) - http://www.bohemiancoding.com/sketch -->
    <title>Shape</title>
    <desc>Created with Sketch.</desc>
    <defs></defs>
    <g id="Page-1" stroke="none" stroke-width="1" fill="none" fill-rule="evenodd">
        <g id="noun_306531_cc" transform="translate(-47.000000, 0.000000)" fill="#000000">
            <path d="M82.121747,0.09325 C82.889507,0.09325 83.660957,0.413715 84.246747,0.9995 L94.121747,10.8745 C95.293317,12.04607 95.291467,13.951079 94.121747,15.1245 L84.246747,25.03075 C83.077027,26.204169 81.168317,26.202323 79.996752,25.03075 C78.825182,23.859179 78.825212,21.952351 79.996752,20.78075 L84.777997,15.9995 L53.00025,15.9995 L53,55 C52.999989,56.65685 51.65685,58 50,58 C48.34315,58 46.999989,56.65685 47,55 L47.00025,15.9995 C47.000271,12.685792 49.686542,9.9995 53.00025,9.9995 L84.777997,9.9995 L79.996752,5.21825 C78.825182,4.04668 78.825182,2.171072 79.996752,0.9995 C80.582527,0.413714 81.353977,0.09325 82.121747,0.09325 L82.121747,0.09325 Z" id="Shape"></path>
        </g>
    </g>
</svg>