<?xml version="1.0" encoding="UTF-8" standalone="no"?>
<svg width="100px" height="100px" viewBox="0 0 100 100" version="1.1" xmlns="http://www.w3.org/2000/svg" xmlns:xlink="http://www.w3.org/1999/xlink">
    <!-- Generator: Sketch 3.8.3 (29802) - http://www.bohemiancoding.com/sketch -->
    <title>noun_521</title>
    <desc>Created with Sketch.</desc>
    <defs></defs>
    <g id="Page-1" stroke="none" stroke-width="1" fill="none" fill-rule="evenodd">
        <g id="noun_521" fill="#000000">
            <path d="M53.556,14.985 C57.699,15.307 61.316,12.211 61.637,8.098 C61.959,3.961 58.888,0.345 54.751,0.023 C50.607,-0.299 46.991,2.773 46.669,6.909 C46.347,11.045 49.431,14.663 53.556,14.985 L53.556,14.985 Z" id="Shape"></path>
            <path d="M47.202,18.057 C48.676,17.041 50.496,16.348 52.466,16.496 C55.048,16.719 57.178,18.305 58.442,20.261 L66.022,35.273 L76.352,42.382 C77.244,43.051 77.764,44.166 77.69,45.355 C77.542,47.213 75.906,48.6 74.024,48.451 C73.478,48.427 73.033,48.203 72.488,47.956 L61.217,40.203 C60.87,39.906 60.598,39.583 60.375,39.187 L57.526,33.563 L54.138,48.55 L67.459,64.28 C67.756,64.776 67.954,65.321 68.078,65.89 L71.67,84.89 C71.645,85.311 71.719,85.583 71.694,85.93 C71.471,88.729 69.019,90.811 66.219,90.587 C63.915,90.414 62.181,88.68 61.636,86.574 L58.242,68.763 L47.437,56.923 L44.91,68.467 C44.836,69.012 44.118,70.151 43.894,70.621 L33.528,88.11 C32.475,89.721 30.754,90.737 28.759,90.588 C25.96,90.365 23.867,87.913 24.09,85.113 C24.152,84.321 24.486,83.503 24.772,82.933 L34.432,66.733 L42.458,31.062 L37.206,35.322 L34.432,48.03 C34.061,49.64 32.575,50.978 30.816,50.829 C28.958,50.68 27.558,49.07 27.695,47.187 C27.719,47.039 27.744,46.89 27.769,46.741 L31.088,31.928 C31.261,31.259 31.633,30.714 32.128,30.293 L47.202,18.057 L47.202,18.057 Z" id="Shape"></path>
            <g id="Group" transform="translate(0.000000, 71.000000)">
                <rect id="Rectangle-path" x="0" y="0.463" width="7.729" height="6.145"></rect>
                <rect id="Rectangle-path" x="15.259" y="0.463" width="7.729" height="6.145"></rect>
                <rect id="Rectangle-path" x="45.976" y="0.463" width="7.729" height="6.145"></rect>
                <rect id="Rectangle-path" x="76.896" y="0.463" width="7.729" height="6.145"></rect>
                <rect id="Rectangle-path" x="92.155" y="0.463" width="7.729" height="6.145"></rect>
                <rect id="Rectangle-path" x="0" y="22.858" width="7.729" height="6.143"></rect>
                <rect id="Rectangle-path" x="15.259" y="22.858" width="7.729" height="6.143"></rect>
                <rect id="Rectangle-path" x="30.716" y="22.858" width="7.729" height="6.143"></rect>
                <rect id="Rectangle-path" x="61.637" y="22.858" width="7.729" height="6.143"></rect>
                <rect id="Rectangle-path" x="45.976" y="22.858" width="7.729" height="6.143"></rect>
                <rect id="Rectangle-path" x="76.896" y="22.858" width="7.729" height="6.143"></rect>
                <rect id="Rectangle-path" x="92.155" y="22.858" width="7.729" height="6.143"></rect>
            </g>
        </g>
    </g>
</svg>