<?xml version="1.0" encoding="UTF-8" standalone="no"?>
<svg width="70px" height="83px" viewBox="0 0 70 83" version="1.1" xmlns="http://www.w3.org/2000/svg" xmlns:xlink="http://www.w3.org/1999/xlink">
    <!-- Generator: Sketch 3.8.3 (29802) - http://www.bohemiancoding.com/sketch -->
    <title>Group</title>
    <desc>Created with Sketch.</desc>
    <defs></defs>
    <g id="Page-1" stroke="none" stroke-width="1" fill="none" fill-rule="evenodd">
        <g id="Group" fill="#000000">
            <g id="Shape">
                <path d="M39.53,51.431 L31.668,51.431 C30.028,51.431 28.699,52.76 28.699,54.4 L28.699,79.727 C28.699,81.366 30.028,82.695 31.668,82.695 L39.53,82.695 C41.171,82.695 42.499,81.366 42.499,79.727 L42.499,54.399 C42.499,52.76 41.171,51.431 39.53,51.431 L39.53,51.431 Z"></path>
                <path d="M62.899,8.137 L42.499,8.137 L42.499,3.442 C42.499,1.803 41.171,0.474 39.53,0.474 L31.668,0.474 C30.028,0.474 28.699,1.803 28.699,3.442 L28.699,8.137 L11.348,8.137 C10.556,8.137 9.797,8.453 9.239,9.017 L1.381,16.95 C0.235,18.107 0.235,19.971 1.381,21.128 L9.239,29.061 C9.797,29.625 10.556,29.941 11.348,29.941 L28.7,29.941 L28.7,34.715 C28.7,36.355 30.029,37.683 31.669,37.683 L39.531,37.683 C41.172,37.683 42.5,36.354 42.5,34.715 L42.5,29.94 L62.9,29.94 C64.54,29.94 65.868,28.611 65.868,26.972 L65.868,11.105 C65.867,9.466 64.539,8.137 62.899,8.137 L62.899,8.137 Z"></path>
            </g>
            <path d="M58.718,55.99 L7.167,55.99 C5.527,55.99 4.198,54.661 4.198,53.022 L4.198,37.155 C4.198,35.515 5.527,34.187 7.167,34.187 L58.718,34.187 C59.51,34.187 60.27,34.503 60.827,35.066 L68.685,42.998 C69.831,44.155 69.831,46.02 68.685,47.175 L60.827,55.111 C60.27,55.675 59.51,55.99 58.718,55.99 L58.718,55.99 Z M10.136,50.054 L57.48,50.054 L62.398,45.088 L57.48,40.124 L10.136,40.124 L10.136,50.054 L10.136,50.054 Z" id="Shape"></path>
        </g>
    </g>
</svg>