<?xml version="1.0" encoding="UTF-8" standalone="no"?>
<svg width="24px" height="24px" viewBox="0 0 24 24" version="1.1" xmlns="http://www.w3.org/2000/svg" xmlns:xlink="http://www.w3.org/1999/xlink">
    <!-- Generator: Sketch 3.8.3 (29802) - http://www.bohemiancoding.com/sketch -->
    <title>Shape</title>
    <desc>Created with Sketch.</desc>
    <defs></defs>
    <g id="Page-1" stroke="none" stroke-width="1" fill="none" fill-rule="evenodd">
        <path d="M23.948,0.042 C23.535,0.014 23.131,0 22.734,0 C14.134,0 9.237,6.557 7.456,11.833 L12.183,16.56 C17.611,14.616 24,9.9 24,1.392 C24,0.952 23.983,0.502 23.948,0.042 L23.948,0.042 Z M12.671,14.22 L9.788,11.337 C11.009,8.478 14.479,2.392 21.987,2.017 C21.736,7.792 17.946,11.949 12.671,14.22 L12.671,14.22 Z M18.142,15.758 C17.595,16.131 17.052,16.468 16.514,16.769 C16.327,17.66 15.852,18.611 15.163,19.421 C15.161,18.845 15.001,18.265 14.72,17.683 C14.225,17.908 13.754,18.101 13.306,18.271 C13.966,19.98 13.294,21.242 12.391,22.425 C13.687,22.327 15.047,21.693 16.119,20.62 C17.274,19.465 18.086,17.797 18.142,15.758 L18.142,15.758 Z M6.322,9.289 C5.743,9.009 5.164,8.851 4.59,8.848 C5.393,8.167 6.334,7.695 7.216,7.503 C7.53,6.951 7.883,6.406 8.255,5.87 C6.216,5.925 4.547,6.737 3.391,7.893 C2.32,8.964 1.685,10.326 1.587,11.621 C2.771,10.717 4.033,10.045 5.742,10.707 C5.915,10.236 6.108,9.763 6.322,9.289 L6.322,9.289 Z M14.06,9.952 C13.669,9.561 13.669,8.929 14.06,8.538 C14.451,8.147 15.083,8.147 15.474,8.538 C15.865,8.93 15.865,9.562 15.474,9.953 C15.083,10.344 14.45,10.343 14.06,9.952 L14.06,9.952 Z M19.009,5.001 C18.229,4.221 16.962,4.221 16.181,5.001 C15.4,5.782 15.4,7.05 16.181,7.83 C16.962,8.611 18.229,8.611 19.01,7.83 C19.79,7.05 19.79,5.783 19.009,5.001 L19.009,5.001 Z M17.101,6.912 C16.828,6.639 16.828,6.194 17.101,5.922 C17.372,5.649 17.818,5.649 18.091,5.922 C18.363,6.194 18.362,6.639 18.091,6.912 C17.817,7.184 17.373,7.184 17.101,6.912 L17.101,6.912 Z M8.867,15.749 L9.88,16.761 C8.938,17.715 7.973,18.844 7.593,20.398 L6.203,20.058 C6.67,18.146 7.81,16.818 8.867,15.749 L8.867,15.749 Z M7.233,14.116 L8.243,15.126 C7.124,16.229 5.83,17.329 3.936,17.792 L3.596,16.402 C5.149,16.021 6.286,15.052 7.233,14.116 L7.233,14.116 Z M9.979,20.562 C10.185,22.591 9.033,23.827 7.499,23.983 C6.597,24.075 5.798,23.778 5.143,23.103 C3.568,23.659 2.069,23.056 1.279,21.931 C0.657,21.048 0.519,19.929 0.897,18.857 C0.221,18.201 -0.076,17.409 0.017,16.501 C0.171,14.98 1.378,13.807 3.501,14.026 L3.711,15.234 C2.995,15.301 2.332,15.338 1.902,15.767 C1.18,16.49 1.398,17.996 2.753,18.396 C1.854,19.3 1.94,20.598 2.616,21.31 C3.323,22.057 4.673,22.173 5.603,21.247 C6.019,22.657 7.545,22.784 8.232,22.098 C8.656,21.674 8.697,21.023 8.763,20.316 L9.979,20.562 L9.979,20.562 Z" id="Shape" fill="#000000"></path>
    </g>
</svg>