<?xml version="1.0" encoding="UTF-8" standalone="no"?>
<svg width="90px" height="82px" viewBox="0 0 90 82" version="1.1" xmlns="http://www.w3.org/2000/svg" xmlns:xlink="http://www.w3.org/1999/xlink">
    <!-- Generator: Sketch 3.8.3 (29802) - http://www.bohemiancoding.com/sketch -->
    <title>roundabout</title>
    <desc>Created with Sketch.</desc>
    <defs></defs>
    <g id="Page-1" stroke="none" stroke-width="1" fill="none" fill-rule="evenodd">
        <g id="roundabout" fill="#000000">
            <path d="M49.279,0.957 L49.149,0.96 C48.675,0.983 47.787,1.156 47.084,2.043 C46.247,3.032 45.87,4.569 45.87,5.688 C45.87,6.803 46.262,8.37 47.138,9.358 L47.248,9.479 C47.974,10.251 48.824,10.37 49.279,10.37 C66.191,10.37 79.951,24.129 79.951,41.042 C79.951,57.954 66.191,71.714 49.279,71.714 C32.367,71.714 18.608,57.954 18.608,41.042 C18.608,38.916 18.83,36.813 19.269,34.75 L21.332,38.953 C21.529,39.346 22.114,40.25 23.391,40.453 C24.625,40.72 26.1,40.39 27.077,39.912 C28.078,39.416 29.311,38.37 29.808,37.15 L29.877,36.973 C30.233,35.998 29.973,35.199 29.774,34.789 L20.713,16.32 L2.222,25.397 C1.776,25.623 1.003,26.171 0.756,27.331 C0.444,28.58 0.78,30.118 1.269,31.123 C1.761,32.134 2.808,33.376 4.034,33.873 L4.277,33.964 C5.212,34.282 5.98,34.04 6.411,33.825 L10.261,31.935 C9.553,34.918 9.197,37.963 9.197,41.041 C9.197,63.144 27.178,81.125 49.28,81.125 C71.383,81.125 89.364,63.144 89.364,41.041 C89.364,18.938 71.382,0.957 49.279,0.957 L49.279,0.957 Z" id="Shape"></path>
        </g>
    </g>
</svg>