<?xml version="1.0" encoding="UTF-8" standalone="no"?>
<svg width="43px" height="90px" viewBox="0 0 43 90" version="1.1" xmlns="http://www.w3.org/2000/svg" xmlns:xlink="http://www.w3.org/1999/xlink">
    <!-- Generator: Sketch 3.8.3 (29802) - http://www.bohemiancoding.com/sketch -->
    <title>Shape</title>
    <desc>Created with Sketch.</desc>
    <defs></defs>
    <g id="Page-1" stroke="none" stroke-width="1" fill="none" fill-rule="evenodd">
        <g id="noun_303688_cc" transform="translate(-47.000000, 0.000000)" fill="#000000">
            <path d="M86.40625,6e-07 C88.0631,6e-07 89.40625,1.3431485 89.40625,3.0000005 L89.40625,17 C89.40625,18.65685 88.0631,20 86.40625,20 C84.7494,20 83.40625,18.65685 83.40625,17 L83.40625,10.25 L53,40.65625 L53,87 C53,88.65685 51.65685,90 50,90 C48.34315,90 47,88.65685 47,87 L47,40.65625 C47,38.999395 47.66422,37.492036 48.75,36.40625 L79.15625,6 L72.40625,6 C70.7494,6 69.40625,4.6568547 69.40625,3.0000005 C69.40625,1.3431485 70.7494,6e-07 72.40625,6e-07 L86.40625,6e-07 L86.40625,6e-07 Z" id="Shape"></path>
        </g>
    </g>
</svg>